<svg id="Layer_1" data-name="Layer 1" xmlns="http://www.w3.org/2000/svg" viewBox="0 0 129.81 49.1"><defs><style>.cls-1{fill:#fff;}</style></defs><title>logo</title><path class="cls-1" d="M7.86,42.94a25.89,25.89,0,0,1-3.56-3.2A30.8,30.8,0,0,1,2,36.95,19.87,19.87,0,0,1,.44,34.3a0.09,0.09,0,0,1-.1-0.1V34a0.5,0.5,0,0,1,.61-0.51,8.65,8.65,0,0,1,1.63,2A25.07,25.07,0,0,0,6.94,40a30.1,30.1,0,0,0,7.78,4.52,30.84,30.84,0,0,0,11.94,2,32.86,32.86,0,0,0,9.15-1.32,22.66,22.66,0,0,0,8.34-4.47,22.55,22.55,0,0,0,2.9-3,20.93,20.93,0,0,0,2.34-3.66,22.9,22.9,0,0,0,1.52-3.86,13.21,13.21,0,0,0,.56-3.66,2.67,2.67,0,0,0-2.19-2.69A18.25,18.25,0,0,0,44,23.22a37.88,37.88,0,0,0-6.61.56q-3.15.56-5.59,1.07-1.42,3.56-2.95,7.22t-2.54,6q-0.3.82-.61,1.83T25.34,42a17.38,17.38,0,0,0-.2,2.85,6.5,6.5,0,0,1-.76-0.15A5,5,0,0,1,23,44.11a4.82,4.82,0,0,1-1.37-1.27A3.47,3.47,0,0,1,21,40.71a16.75,16.75,0,0,1,.3-2.75q0.31-1.73.81-3.71t1.07-4q0.56-2,1.07-3.51a1.21,1.21,0,0,1-.86-0.66,13,13,0,0,1-.92-1.58,15.55,15.55,0,0,1-.76-1.78,4.4,4.4,0,0,1-.3-1.37,0.7,0.7,0,0,1,.51-0.81H22q1.22-.41,2.49-0.71l2.59-.61q0.51-1.32,1-2.44t1-2.34l0.71-2.13q0.31-.91.56-1.83A6,6,0,0,0,30.63,9L30,9.3l-0.41.2a40.7,40.7,0,0,0-5.74,3.66,35.45,35.45,0,0,0-3.51,3.1,14.88,14.88,0,0,0-1.83,2.19,1.69,1.69,0,0,1-.71.81,7.54,7.54,0,0,1-2.69-2.9,6.46,6.46,0,0,1-.66-2.59,7.05,7.05,0,0,1,.2-1.73,2.22,2.22,0,0,1,.3-0.71A16,16,0,0,1,16.24,10a24.06,24.06,0,0,1,2.69-2.24,38.69,38.69,0,0,1,4.22-2.64A41.64,41.64,0,0,1,29,2.49a41,41,0,0,1,5-1.37A26.49,26.49,0,0,1,39.47.56a20.12,20.12,0,0,1,5.34.71A14.23,14.23,0,0,1,49.38,3.4a10.78,10.78,0,0,1,3.15,3.51,9.52,9.52,0,0,1,.3,8.54A15.79,15.79,0,0,1,51,18.75a9.42,9.42,0,0,1,3.66,2.95,9.17,9.17,0,0,1,1.32,5.39A17.84,17.84,0,0,1,53,37.35a25.06,25.06,0,0,1-7.12,7,31.08,31.08,0,0,1-9,4,33.71,33.71,0,0,1-8.54,1.27A34,34,0,0,1,7.86,42.94ZM47.81,17.73a8.76,8.76,0,0,0,1.93-5.59,5,5,0,0,0-.81-2.9,6.37,6.37,0,0,0-2-1.88,8.94,8.94,0,0,0-2.64-1A12.69,12.69,0,0,0,41.61,6a18.37,18.37,0,0,0-6.3,1.07Q32.35,8.18,30.63,9l1.22,0.46a11.12,11.12,0,0,1,1.88,1,8.38,8.38,0,0,1,1.78,1.52,3.12,3.12,0,0,1,.81,2.13,4.42,4.42,0,0,1-.2,1.47q-0.21.56-1,2.29,3-.41,6.3-0.56A26.94,26.94,0,0,1,47.81,17.73Z" transform="translate(-0.34 -0.56)"/><path class="cls-1" d="M71.59,17.94a5.1,5.1,0,0,1,4.52,2.64,11.35,11.35,0,0,1,1.47,5.79,16,16,0,0,1-1.58,7,27.75,27.75,0,0,1-3.2,5.34q0.51,0.1.92,0.15a6.28,6.28,0,0,0,.81.05,9.64,9.64,0,0,0,4-.76,9,9,0,0,1,2-.76h-0.1a1.12,1.12,0,0,0,.31.2,1.18,1.18,0,0,1,.41.81l-0.1-.1a1.71,1.71,0,0,0-.76.51,12.55,12.55,0,0,1-1.58,1.17,12,12,0,0,1-2.39,1.17,8.86,8.86,0,0,1-3.1.51,11,11,0,0,1-1.47-.1,7.13,7.13,0,0,1-1.58-.41,11.84,11.84,0,0,1-2.39,2.08,7.3,7.3,0,0,1-4.42,1.37,6.71,6.71,0,0,1-3.61-.92,7.48,7.48,0,0,1-2.39-2.34,11.22,11.22,0,0,1-1.37-3,11.61,11.61,0,0,1-.46-3.15,17.89,17.89,0,0,1,1.32-7.06,25.54,25.54,0,0,1,3-5.34,18.59,18.59,0,0,1,3.3-3.51,10.14,10.14,0,0,1,2.24-1.47A1.12,1.12,0,0,1,66,18a6.71,6.71,0,0,1,1.17,1.58Q68,19.06,69,18.45A4.31,4.31,0,0,1,71.59,17.94ZM63.66,42a6.36,6.36,0,0,0,1.78-.46,4.72,4.72,0,0,0,2.19-1.68,7.76,7.76,0,0,1-3.51-4.47,19.15,19.15,0,0,1-.86-5.59c0-.41,0-0.83.05-1.27s0.08-.86.15-1.27a17.22,17.22,0,0,0-2.9,4.17,11.2,11.2,0,0,0-1.17,5.08,6,6,0,0,0,1.12,4A4.61,4.61,0,0,0,63.66,42Zm6.2-4.68a14.26,14.26,0,0,0,1.63-2.85,16.93,16.93,0,0,0,1.07-3.35,11.9,11.9,0,0,0,.2-3.46,9.65,9.65,0,0,0-.86-3.25,2,2,0,0,0-1.52.81,8.67,8.67,0,0,0-1.27,2,14,14,0,0,0-.91,2.54,10.3,10.3,0,0,0-.36,2.59,12.9,12.9,0,0,0,.41,2.85A2.64,2.64,0,0,0,69.86,37.35Z" transform="translate(-0.34 -0.56)"/><path class="cls-1" d="M93.85,42.54a9.2,9.2,0,0,1-1.42-5.39,23.32,23.32,0,0,1,.76-5.74A57.08,57.08,0,0,1,95,25.66l-2,3.76q-1.07,2-2.08,4.07t-1.93,4q-0.92,1.93-1.63,3.25a21,21,0,0,1-1.07,1.93A6.79,6.79,0,0,1,85.16,44a2.63,2.63,0,0,1-1.47.71,2.88,2.88,0,0,1-3.25-1.78,13.39,13.39,0,0,1-.81-5A27.14,27.14,0,0,1,80.54,31a56.26,56.26,0,0,1,2-6.35A36.15,36.15,0,0,1,84.71,20a5.59,5.59,0,0,1,1.22-1.78,5,5,0,0,1,1.68.36,19.93,19.93,0,0,1,2,.86Q90.7,20,91.92,20.68q-0.81,1.73-2.08,3.86t-2.49,4.57a42.43,42.43,0,0,0-2.13,5.08,15.81,15.81,0,0,0-.91,5.18q3.35-6,5.79-9.86t4.12-6.2Q95.89,21,97,19.77t1.73-2a6.58,6.58,0,0,0,1-1.52,12.35,12.35,0,0,0,.61-2.13,4.24,4.24,0,0,1,.86.46,9.5,9.5,0,0,1,1.58,1.22,17.66,17.66,0,0,1,1.52,1.63,2.78,2.78,0,0,1,.71,1.78,7.31,7.31,0,0,1-.15,1.12,2.27,2.27,0,0,1-.56,1.22q-0.81,1.73-2,3.86t-2.34,4.47a45.21,45.21,0,0,0-1.93,4.68,13.31,13.31,0,0,0-.81,4.37,6,6,0,0,0,.25,1.88,1.1,1.1,0,0,0,1.17.76q1.32,0,3.51-2.08a21,21,0,0,0,4.22-6.76l0.2-.1a0.88,0.88,0,0,1,.61.3l0.2,0.2a14.15,14.15,0,0,1-.66,2A27,27,0,0,1,104.73,39a17.41,17.41,0,0,1-3,3.86,5.62,5.62,0,0,1-4,1.73,5.23,5.23,0,0,1-1.93-.41A4.68,4.68,0,0,1,93.85,42.54Z" transform="translate(-0.34 -0.56)"/><path class="cls-1" d="M120.59,17.94a5.1,5.1,0,0,1,4.52,2.64,11.35,11.35,0,0,1,1.47,5.79,16,16,0,0,1-1.58,7,27.75,27.75,0,0,1-3.2,5.34q0.51,0.1.92,0.15a6.28,6.28,0,0,0,.81.05,9.64,9.64,0,0,0,4-.76,9,9,0,0,1,2-.76h-0.1a1.12,1.12,0,0,0,.31.2,1.18,1.18,0,0,1,.41.81l-0.1-.1a1.71,1.71,0,0,0-.76.51,12.55,12.55,0,0,1-1.58,1.17,12,12,0,0,1-2.39,1.17,8.86,8.86,0,0,1-3.1.51,11,11,0,0,1-1.47-.1,7.13,7.13,0,0,1-1.58-.41,11.84,11.84,0,0,1-2.39,2.08,7.3,7.3,0,0,1-4.42,1.37,6.71,6.71,0,0,1-3.61-.92,7.48,7.48,0,0,1-2.39-2.34,11.23,11.23,0,0,1-1.37-3,11.63,11.63,0,0,1-.46-3.15,17.89,17.89,0,0,1,1.32-7.06,25.54,25.54,0,0,1,3-5.34,18.58,18.58,0,0,1,3.3-3.51,10.13,10.13,0,0,1,2.24-1.47,1.12,1.12,0,0,1,.56.25,6.73,6.73,0,0,1,1.17,1.58q0.91-.51,1.88-1.12A4.31,4.31,0,0,1,120.59,17.94ZM112.66,42a6.35,6.35,0,0,0,1.78-.46,4.72,4.72,0,0,0,2.19-1.68,7.76,7.76,0,0,1-3.51-4.47,19.17,19.17,0,0,1-.86-5.59q0-.61.05-1.27c0-.44.08-0.86,0.15-1.27a17.25,17.25,0,0,0-2.9,4.17,11.19,11.19,0,0,0-1.17,5.08,6,6,0,0,0,1.12,4A4.62,4.62,0,0,0,112.66,42Zm6.2-4.68a14.26,14.26,0,0,0,1.63-2.85,16.93,16.93,0,0,0,1.07-3.35,11.9,11.9,0,0,0,.2-3.46,9.65,9.65,0,0,0-.86-3.25,2,2,0,0,0-1.52.81,8.67,8.67,0,0,0-1.27,2,14,14,0,0,0-.91,2.54,10.3,10.3,0,0,0-.36,2.59,12.9,12.9,0,0,0,.41,2.85A2.64,2.64,0,0,0,118.86,37.35Z" transform="translate(-0.34 -0.56)"/></svg>